<?xml version="1.0" encoding="UTF-8"?>
<svg version="1.1" xmlns="http://www.w3.org/2000/svg" width="256" height="256">
<path d="M0 0 C1.13656036 -0.02435623 2.27312073 -0.04871246 3.44412231 -0.07380676 C5.30877892 -0.09061996 5.30877892 -0.09061996 7.21110535 -0.10777283 C8.52383423 -0.13069901 9.83656311 -0.15362518 11.18907166 -0.17724609 C15.54285361 -0.25061181 19.89669194 -0.29171651 24.25090027 -0.33018494 C25.75501281 -0.34496139 27.25912442 -0.35983342 28.76323509 -0.37479973 C35.02807748 -0.43493243 41.29289226 -0.48686298 47.55795765 -0.51679325 C56.50513657 -0.55971869 65.44882518 -0.65009389 74.39472181 -0.80895907 C80.70072332 -0.91706838 87.00580328 -0.97045134 93.31270808 -0.98427862 C97.07113439 -0.99387572 100.82592255 -1.02612989 104.58333778 -1.11694527 C130.39379955 -1.70948251 130.39379955 -1.70948251 138.41093349 5.08687687 C140.80727028 7.49492265 142.96729412 10.00779507 145.03713036 12.70028877 C146.99357098 15.18479058 149.25250225 17.28420861 151.56242371 19.43739319 C153.07453567 20.9301342 154.58399119 22.42557104 156.09074402 23.92372131 C156.90585449 24.73313171 157.72096497 25.54254211 158.56077576 26.3764801 C160.24886239 28.05526945 161.93561669 29.7353996 163.62101746 31.41688538 C166.20025605 33.98623804 168.78998384 36.54473019 171.37980652 39.10340881 C173.03410517 40.75119117 174.68777498 42.39960516 176.34074402 44.04872131 C177.10940796 44.80503845 177.8780719 45.56135559 178.67002869 46.34059143 C179.38217529 47.05573914 180.0943219 47.77088684 180.82804871 48.50770569 C181.45120972 49.12722107 182.07437073 49.74673645 182.71641541 50.38502502 C186.85367783 55.41535945 187.85809962 60.0272996 187.79309082 66.40068054 C187.79706523 67.18294333 187.80103963 67.96520612 187.80513448 68.77117383 C187.81473122 71.38291954 187.80295551 73.99412002 187.79118347 76.60585022 C187.79361226 78.48199668 187.79733243 80.35814185 187.80224609 82.23428345 C187.81164543 87.32294665 187.80223833 92.41141718 187.78891397 97.50006533 C187.77759404 102.82466439 187.78170731 108.14925405 187.78366089 113.47386169 C187.78454354 122.41323493 187.77346824 131.35253229 187.75505066 140.29188538 C187.73387057 150.63137593 187.73037609 160.97075542 187.73661262 171.31026328 C187.74230377 181.25430051 187.73666438 191.19829858 187.72543907 201.14233017 C187.72079112 205.37590127 187.71992007 209.60944843 187.72202492 213.84302139 C187.72390621 218.82526904 187.71581618 223.80740336 187.69996452 228.78962517 C187.69571628 230.61981042 187.69487473 232.45000716 187.69765472 234.28019524 C187.70086938 236.77466498 187.69181296 239.2687946 187.67956543 241.76322937 C187.68334475 242.49065641 187.68712408 243.21808345 187.69101793 243.96755373 C187.63378453 250.53850481 187.63378453 250.53850481 185.41886902 253.45497131 C181.41840008 256.66956636 177.73752944 256.88283734 172.78996277 256.83592224 C172.02967773 256.84060221 171.2693927 256.84528219 170.48606873 256.85010397 C167.94265718 256.86205435 165.39978441 256.85259675 162.85636902 256.84315491 C161.03125189 256.84722059 159.20613722 256.85256246 157.38102722 256.85908508 C152.42653878 256.87276482 147.4722377 256.86745729 142.51774597 256.85794783 C137.33374017 256.85035467 132.14975045 256.85739589 126.96574402 256.86210632 C118.25998554 256.86756487 109.55430341 256.86036964 100.84855652 256.84608459 C90.78230166 256.82975791 80.71622908 256.83504635 70.64997864 256.85156381 C62.00866637 256.86517583 53.367409 256.86709972 44.72608948 256.8592478 C39.56440747 256.85456974 34.40281115 256.85395014 29.24113464 256.86385727 C24.38853926 256.8725205 19.53617899 256.86651674 14.68360901 256.8491745 C12.90222057 256.84520622 11.12081235 256.84634953 9.33943176 256.85296249 C6.90861207 256.86115467 4.47854683 256.85088498 2.04777527 256.83592224 C1.34203369 256.84261441 0.63629211 256.84930657 -0.09083557 256.85620153 C-4.4140263 256.80454877 -7.18931622 256.18047953 -10.58113098 253.45497131 C-12.29698697 250.62592278 -12.83167008 248.52076079 -12.83560658 245.23137093 C-12.84435487 243.97095252 -12.84435487 243.97095252 -12.85327989 242.68507111 C-12.84950056 241.7669876 -12.84572124 240.8489041 -12.84182739 239.90299988 C-12.84565294 238.92376301 -12.84947849 237.94452614 -12.85341996 236.93561542 C-12.86376145 233.64530097 -12.85975559 230.35516065 -12.85578918 227.06483459 C-12.86013504 224.70947609 -12.86531776 222.35411901 -12.87127686 219.99876404 C-12.88469216 213.59382775 -12.88524267 207.18895038 -12.88271356 200.78400278 C-12.88143131 196.78446998 -12.88404948 192.78494286 -12.88770103 188.78541183 C-12.88829622 188.12159943 -12.88889141 187.45778703 -12.88950464 186.77385911 C-12.89071638 185.42533963 -12.89193052 184.07682015 -12.89314701 182.72830068 C-12.90402586 170.07898278 -12.90185854 157.42969153 -12.89576217 144.78037213 C-12.89059375 133.20956384 -12.90184583 121.63883976 -12.92086039 110.06804813 C-12.94023519 98.18693417 -12.94849535 86.30586005 -12.94473714 74.42473018 C-12.94282441 67.75449984 -12.94558373 61.08433064 -12.95945168 54.41411209 C-12.97200413 48.14161435 -12.97011028 41.86928539 -12.95704079 35.59679031 C-12.95466978 33.29334965 -12.95742837 30.9898972 -12.96566391 28.68647003 C-12.97608855 25.54441951 -12.96806476 22.40293979 -12.95535278 19.26091003 C-12.96272707 18.34728797 -12.97010135 17.43366591 -12.9776991 16.49235833 C-12.92639705 10.47343984 -12.17397063 6.05893008 -7.74245167 1.60840702 C-5.01731906 0.15408084 -3.08596509 0.04820069 0 0 Z M-2.58113098 11.45497131 C-2.88110784 14.34989308 -2.88110784 14.34989308 -2.82164001 17.80766296 C-2.82335205 18.46523087 -2.82506409 19.12279877 -2.826828 19.80029297 C-2.83015044 22.02074364 -2.81907212 24.24089566 -2.80818176 26.46131897 C-2.8075694 28.07354409 -2.80783556 29.68576974 -2.80891228 31.29799461 C-2.80936488 35.62605623 -2.79775052 39.95400786 -2.78369141 44.28204346 C-2.77232431 48.33928281 -2.77176641 52.39649504 -2.77033997 56.45375061 C-2.75983401 68.32917215 -2.73191185 80.20457311 -2.70613098 92.07997131 C-2.66488098 118.60372131 -2.62363098 145.12747131 -2.58113098 172.45497131 C56.81886902 172.45497131 116.21886902 172.45497131 177.41886902 172.45497131 C177.41886902 136.15497131 177.41886902 99.85497131 177.41886902 62.45497131 C160.91886902 62.45497131 144.41886902 62.45497131 127.41886902 62.45497131 C127.74886902 63.77497131 128.07886902 65.09497131 128.41886902 66.45497131 C128.54018893 68.12836708 128.61877694 69.80516307 128.66496277 71.48231506 C128.69783386 72.43944397 128.73070496 73.39657288 128.76457214 74.38270569 C128.82564751 76.38519803 128.88295458 78.38780894 128.93644714 80.39051819 C128.9706073 81.34893616 129.00476746 82.30735413 129.03996277 83.29481506 C129.06501892 84.16485168 129.09007507 85.03488831 129.1158905 85.93128967 C129.53270619 89.40318633 130.59284581 92.28114886 132.60636902 95.14247131 C135.30395965 97.09589901 138.21663695 97.66951816 141.41886902 98.45497131 C142.54386902 103.20497131 142.54386902 103.20497131 141.41886902 105.45497131 C139.45587048 106.29562764 137.45816031 106.92014479 135.42668152 107.57606506 C133.14487473 108.57491045 131.96029739 109.50280304 130.41886902 111.45497131 C129.42044394 114.56175231 129.28305196 117.45074011 129.24308777 120.70106506 C129.21924011 121.70331116 129.19539246 122.70555725 129.17082214 123.73817444 C129.12793741 125.83692729 129.09664113 127.9359497 129.07707214 130.03504944 C128.8645707 137.72957829 128.8645707 137.72957829 126.48918152 141.59559631 C123.07950477 144.65787203 121.39389398 145.40539377 116.73136902 145.64247131 C113.41886902 145.45497131 113.41886902 145.45497131 112.41886902 144.45497131 C112.37793964 142.12199698 112.37645179 139.78791907 112.41886902 137.45497131 C113.36761902 137.35184631 114.31636902 137.24872131 115.29386902 137.14247131 C118.70994403 136.76957836 118.70994403 136.76957836 120.41886902 133.45497131 C120.72149506 130.97170278 120.72149506 130.97170278 120.69230652 128.19325256 C120.71293152 127.15620178 120.73355652 126.119151 120.75480652 125.05067444 C120.78061489 122.88148054 120.79898246 120.7121839 120.80949402 118.54286194 C120.92359585 113.41144895 121.02600865 109.58241647 123.70793152 105.12294006 C124.85069309 103.2983049 124.85069309 103.2983049 125.41886902 101.45497131 C123.89594116 98.40782009 123.89594116 98.40782009 122.49015808 96.49989319 C120.22898589 92.18367206 120.81679445 86.97346113 120.79386902 82.20497131 C120.76838138 80.05381424 120.73489833 77.90273271 120.69230652 75.75184631 C120.6863446 74.80664124 120.68038269 73.86143616 120.67424011 72.8875885 C120.58226125 70.19652723 120.58226125 70.19652723 118.41886902 67.45497131 C115.35330304 66.72153703 115.35330304 66.72153703 112.41886902 66.45497131 C112.37645179 64.12202356 112.37793964 61.78794564 112.41886902 59.45497131 C112.74886902 59.12497131 113.07886902 58.79497131 113.41886902 58.45497131 C118.86386902 58.94997131 118.86386902 58.94997131 124.41886902 59.45497131 C124.41886902 42.95497131 124.41886902 26.45497131 124.41886902 9.45497131 C108.15543161 9.40986257 91.89204739 9.37300441 75.62856483 9.35134697 C68.07752369 9.34102475 60.52652411 9.32694643 52.97550964 9.30409241 C46.39572796 9.28418739 39.81597636 9.27126176 33.2361654 9.26679432 C29.75067888 9.26418203 26.26527847 9.25802253 22.77981949 9.2435112 C18.89337269 9.22746094 15.00701093 9.22698977 11.12052917 9.22792053 C9.95887741 9.22072998 8.79722565 9.21353943 7.60037231 9.20613098 C6.54585373 9.20888031 5.49133514 9.21162964 4.40486145 9.21446228 C3.02493735 9.2116969 3.02493735 9.2116969 1.617136 9.20887566 C-0.78892237 9.24673074 -0.78892237 9.24673074 -2.58113098 11.45497131 Z M134.41886902 18.45497131 C134.41886902 29.67497131 134.41886902 40.89497131 134.41886902 52.45497131 C145.63886902 52.45497131 156.85886902 52.45497131 168.41886902 52.45497131 C164.37351682 47.73539375 160.34866409 43.23599673 155.96183777 38.86512756 C155.37340591 38.27573898 154.78497406 37.6863504 154.17871094 37.07910156 C152.94887421 35.84859025 151.71779758 34.61931697 150.48551941 33.39125061 C148.59037582 31.50152383 146.70070625 29.6064386 144.81144714 27.71083069 C143.61189837 26.5119417 142.41203999 25.31336239 141.21183777 24.11512756 C140.64522934 23.5464949 140.07862091 22.97786224 139.49484253 22.39199829 C137.3162921 19.69139115 137.3162921 19.69139115 134.41886902 18.45497131 Z M-2.58113098 181.45497131 C-2.58113098 202.90497131 -2.58113098 224.35497131 -2.58113098 246.45497131 C-0.67169872 248.36440357 2.7639467 247.58122818 5.28996277 247.58195496 C6.01698395 247.58351495 6.74400513 247.58507494 7.49305725 247.5866822 C9.94751467 247.59069478 12.40191106 247.58750157 14.85636902 247.58436584 C16.60856666 247.58571977 18.36076401 247.58749965 20.11296082 247.5896759 C24.88555086 247.59425126 29.6581194 247.59246026 34.43070984 247.58929682 C39.41374268 247.58677374 44.39677361 247.58911061 49.37980652 247.59068298 C57.74960157 247.59250483 66.11938781 247.59009797 74.48918152 247.58534241 C84.18047288 247.57989976 93.87174321 247.5816624 103.56303406 247.58716881 C111.86788616 247.5916995 120.1727319 247.59235071 128.47758484 247.58973014 C133.44467005 247.58816713 138.41174537 247.58797427 143.37882996 247.59126663 C148.0474293 247.59414471 152.71600139 247.59217083 157.38459778 247.58637238 C159.10316421 247.58504444 160.82173292 247.58543946 162.54029846 247.58763504 C164.87615556 247.59034523 167.21192391 247.58696706 169.54777527 247.58195496 C170.85818787 247.58157793 172.16860046 247.5812009 173.51872253 247.58081245 C176.31224255 247.78686065 176.31224255 247.78686065 177.41886902 246.45497131 C177.41886902 225.00497131 177.41886902 203.55497131 177.41886902 181.45497131 C118.01886902 181.45497131 58.61886902 181.45497131 -2.58113098 181.45497131 Z " fill="#000000" transform="translate(40.58113098144531,-0.4549713134765625)"/>
<path d="M0 0 C1.9375 1.1875 1.9375 1.1875 3 3 C3.125 5.4375 3.125 5.4375 2 8 C0.8346875 8.47179687 -0.330625 8.94359375 -1.53125 9.4296875 C-3.50149013 10.39188522 -3.50149013 10.39188522 -5 12 C-5.93890252 15.88264727 -5.74942743 19.71300075 -5.625 23.6875 C-5.41606382 32.20687264 -6.01192599 37.91008279 -11 45 C-10.64268799 45.43610596 -10.28537598 45.87221191 -9.91723633 46.3215332 C-4.79135529 53.35092919 -5.4849081 60.0291985 -5.81445312 68.41992188 C-6.02427059 74.17404356 -6.02427059 74.17404356 -3.17431641 78.85009766 C-1.15622187 80.11357327 0.78662953 81.12986893 3 82 C2.625 84.9375 2.625 84.9375 2 88 C-1.51145201 89.755726 -5.28528368 88.94474619 -9 88 C-12.32051109 85.38598063 -14.41199582 82.89013009 -16 79 C-16.25537109 76.40625 -16.25537109 76.40625 -16.2734375 73.5 C-16.2940625 72.448125 -16.3146875 71.39625 -16.3359375 70.3125 C-16.36197824 68.10424497 -16.38020809 65.895884 -16.390625 63.6875 C-16.41382812 62.635625 -16.43703125 61.58375 -16.4609375 60.5 C-16.46915527 59.5409375 -16.47737305 58.581875 -16.48583984 57.59375 C-17.14137734 54.28680302 -18.43575046 53.11549836 -21 51 C-22.83517008 49.96215245 -22.83517008 49.96215245 -24.6875 49.3125 C-28 48 -28 48 -29 47 C-29.375 44.625 -29.375 44.625 -29 42 C-26.875 40.375 -26.875 40.375 -24 39 C-19.75790355 37.28963938 -19.75790355 37.28963938 -17 34 C-16.89414168 32.25743717 -16.84465039 30.51128068 -16.82421875 28.765625 C-16.80037109 27.71632813 -16.77652344 26.66703125 -16.75195312 25.5859375 C-16.70928995 23.37779518 -16.67787474 21.16940432 -16.65820312 18.9609375 C-16.49314976 12.68123271 -16.19237372 8.79014564 -12 4 C-11.484375 3.401875 -10.96875 2.80375 -10.4375 2.1875 C-7.29929507 -0.40493016 -3.87942588 -0.32328549 0 0 Z " fill="#000000" transform="translate(97,57)"/>
<path d="M0 0 C2.64 0 5.28 0 8 0 C10.25 2.3515625 10.25 2.3515625 12 5.625 C12.31904297 6.19951904 12.63808594 6.77403809 12.96679688 7.3659668 C13.6449965 8.59098965 14.3107115 9.82299367 14.96484375 11.06103516 C16.35386502 13.66282925 17.83279478 16.20870613 19.31445312 18.75854492 C20.89419728 21.49544517 22.44413581 24.24945438 24 27 C24.33 18.09 24.66 9.18 25 0 C27.64 0 30.28 0 33 0 C33 15.18 33 30.36 33 46 C25 46 25 46 23.3293457 44.6015625 C23.01054443 43.94929688 22.69174316 43.29703125 22.36328125 42.625 C21.97865723 41.89410156 21.5940332 41.16320312 21.19775391 40.41015625 C20.80249512 39.61480469 20.40723633 38.81945312 20 38 C19.04455396 36.34869334 18.07941393 34.70296384 17.10546875 33.0625 C16.13112409 31.37597431 15.15877351 29.68829624 14.1875 28 C12.475625 25.03 10.76375 22.06 9 19 C8.67 27.91 8.34 36.82 8 46 C5.36 46 2.72 46 0 46 C0 30.82 0 15.64 0 0 Z " fill="#000000" transform="translate(169,193)"/>
<path d="M0 0 C5.17233817 3.69452727 8.8289584 8.37241696 10.25 14.625 C11.20734203 22.92196428 10.90458277 30.75771998 6.265625 37.99609375 C2.79843771 42.29433366 -0.02613886 44.50935312 -5.62890625 45.12109375 C-11.64108194 45.42399726 -16.58410883 44.70771293 -21.375 40.875 C-28.07343036 32.7435721 -28.1200854 24.02285329 -27.375 13.875 C-25.80550226 7.42660642 -22.80292441 3.57060811 -17.375 -0.125 C-11.73816637 -2.00394454 -5.61662826 -1.87220942 0 0 Z M-17.375 10.875 C-20.74783677 18.10250737 -19.81844442 25.54466673 -17.375 32.875 C-14.68434086 36.15424083 -12.81137288 37.71540301 -8.5625 38.1875 C-4.57406138 37.79647661 -3.14713721 36.72414102 -0.375 33.875 C1.6622847 29.85721903 1.92292525 26.41194735 1.9375 21.9375 C1.95425781 20.75285156 1.97101563 19.56820312 1.98828125 18.34765625 C1.51870057 13.85886886 -0.18021834 10.76149736 -2.5625 7 C-8.50445917 3.31188741 -13.62703741 5.80422708 -17.375 10.875 Z " fill="#000000" transform="translate(149.375,194.125)"/>
<path d="M0 0 C1.546875 -0.00773438 1.546875 -0.00773438 3.125 -0.015625 C5.94597278 0.24500835 7.60145718 0.79703656 10 2.25 C9.34 4.23 8.68 6.21 8 8.25 C7.22914062 8.22679687 6.45828125 8.20359375 5.6640625 8.1796875 C4.15972656 8.15261719 4.15972656 8.15261719 2.625 8.125 C1.62726563 8.10179687 0.62953125 8.07859375 -0.3984375 8.0546875 C-3.16262173 7.97783152 -3.16262173 7.97783152 -5 10.25 C-5.51058869 12.70471355 -5.51058869 12.70471355 -5 15.25 C-3.25550936 17.01962672 -3.25550936 17.01962672 -0.875 18.3125 C-0.05644531 18.81652344 0.76210937 19.32054687 1.60546875 19.83984375 C2.79076172 20.53787109 2.79076172 20.53787109 4 21.25 C10.9469262 25.45893432 10.9469262 25.45893432 12 29.25 C12.66881095 35.07820972 12.03631081 38.08932175 8.58203125 42.8046875 C4.26832461 46.74560467 -0.79992683 46.60170717 -6.328125 46.51953125 C-9.70800429 46.17857851 -12.16256589 45.0904978 -15 43.25 C-14.505 40.28 -14.505 40.28 -14 37.25 C-13.236875 37.415 -12.47375 37.58 -11.6875 37.75 C-6.77854151 38.41562149 -1.94564886 38.32920078 3 38.25 C3.41771804 34.91799815 3.41771804 34.91799815 3 31.25 C1.04753335 28.99944076 1.04753335 28.99944076 -2 27.25 C-3.5458289 26.25644622 -5.08721422 25.25595775 -6.625 24.25 C-7.38039063 23.775625 -8.13578125 23.30125 -8.9140625 22.8125 C-11.95788015 20.53248678 -13.74703838 18.65154412 -14.43359375 14.84765625 C-14.44011594 10.61475361 -14.42117643 7.97201674 -12.25 4.25 C-8.24427553 0.68935603 -5.35532556 -0.02677663 0 0 Z " fill="#000000" transform="translate(104,192.75)"/>
<path d="M0 0 C2.64 0 5.28 0 8 0 C8.09903517 5.60500964 8.17154712 11.20950762 8.21972656 16.81518555 C8.23981546 18.7212003 8.26709194 20.62715362 8.30175781 22.53295898 C8.35039642 25.27603326 8.37299579 28.01829125 8.390625 30.76171875 C8.41127014 31.61086349 8.43191528 32.46000824 8.45318604 33.33488464 C8.45472965 37.42455896 8.34054137 39.46412759 6.09570312 42.99658203 C1.60209044 47.29231662 -2.12986454 47.35856911 -8.16015625 47.26953125 C-12.20275875 46.88584546 -15.31262912 45.66975285 -19 44 C-19 40 -19 40 -17.5 38.25 C-17.005 37.8375 -16.51 37.425 -16 37 C-15.13375 37.33 -14.2675 37.66 -13.375 38 C-9.97193493 39.00831558 -7.51937829 39.39104203 -4 39 C-2.1950031 38.04660764 -2.1950031 38.04660764 -1 36 C-0.66890477 33.20859238 -0.51142322 30.62783312 -0.48828125 27.83203125 C-0.47033005 27.03721848 -0.45237885 26.2424057 -0.43388367 25.42350769 C-0.3797303 22.88655899 -0.34586972 20.34979893 -0.3125 17.8125 C-0.27933126 16.09177059 -0.24484201 14.3710661 -0.20898438 12.65039062 C-0.12400127 8.43372978 -0.05721458 4.21712536 0 0 Z " fill="#000000" transform="translate(72,192)"/>
<path d="M0 0 C3.5625 0.25 3.5625 0.25 7 1 C8.56474126 4.12948252 8.22569951 7.44255602 8.25 10.875 C8.270625 11.59558594 8.29125 12.31617187 8.3125 13.05859375 C8.33717261 16.40790073 8.23691554 18.60799026 6.484375 21.5078125 C5.99453125 22.00023437 5.5046875 22.49265625 5 23 C-0.875 22.125 -0.875 22.125 -2 21 C-2.24966567 17.8617655 -2.18521791 14.70950387 -2.1875 11.5625 C-2.19974609 10.67755859 -2.21199219 9.79261719 -2.22460938 8.88085938 C-2.22654297 8.03458984 -2.22847656 7.18832031 -2.23046875 6.31640625 C-2.23457764 5.53724854 -2.23868652 4.75809082 -2.24291992 3.95532227 C-2 2 -2 2 0 0 Z " fill="#000000" transform="translate(123,110)"/>
<path d="M0 0 C2.4375 2.125 2.4375 2.125 4 5 C3.93572343 8.21382832 3.53112958 10.16137435 1.8125 12.875 C-0.91172344 14.56589731 -2.85933099 14.38457172 -6 14 C-8.375 12.9375 -8.375 12.9375 -10 11 C-10.57491549 7.04745604 -10.61372366 4.92058549 -8.375 1.5625 C-5.2629338 -0.48491197 -3.65605504 -0.68551032 0 0 Z " fill="#000000" transform="translate(129,79)"/>
</svg>
